<svg width="74" height="30" viewBox="0 0 74 30" fill="none" xmlns="http://www.w3.org/2000/svg">
<path fill-rule="evenodd" clip-rule="evenodd" d="M74 0V15C74 18.866 70.866 22 67 22C63.134 22 60 18.866 60 15C60 11.134 63.134 8 67 8C68.9589 8 70.7299 8.80464 72.0004 10.1014L72 0H74ZM5 8C7.23385 8 9.21381 9.17053 9.8168 10.9163L9.87609 11.1056L7.95103 11.6479C7.69675 10.7454 6.48502 10 5 10C3.29086 10 2 10.9681 2 12C2 13.2089 3.36528 13.9399 4.81804 13.9965L5 14C7.48142 14 10 15.2593 10 18C10 20.2819 7.70914 22 5 22C2.798 22 0.840553 20.8625 0.208226 19.1535L0.145597 18.9682L2.05774 18.3819C2.33087 19.2728 3.53384 20 5 20C6.70914 20 8 19.0319 8 18C8 16.7911 6.63472 16.0601 5.18196 16.0035L5 16C2.51858 16 0 14.7407 0 12C0 9.71815 2.29086 8 5 8ZM34 8.5V16C34 18.2091 35.7909 20 38 20C40.1422 20 41.8911 18.316 41.9951 16.1996L42 16V8.5H44V16C44 19.3137 41.3137 22 38 22C34.7616 22 32.1224 19.4344 32.0041 16.2249L32 16V8.5H34ZM52 8C55.3137 8 58 10.6863 58 14V21.5H56V14L55.9951 13.8004C55.8911 11.684 54.1422 10 52 10C49.7909 10 48 11.7909 48 14V21.5H46V14L46.0041 13.7751C46.1224 10.5656 48.7616 8 52 8ZM67 10C64.2386 10 62 12.2386 62 15C62 17.7614 64.2386 20 67 20C69.7614 20 72 17.7614 72 15C72 12.2386 69.7614 10 67 10Z" fill="#1D1D1D"/>
<path d="M25 7H17C14.2386 7 12 9.23858 12 12V18C12 20.7614 14.2386 23 17 23H25C27.7614 23 30 20.7614 30 18V12C30 9.23858 27.7614 7 25 7ZM17 9H25C26.6568 9 28 10.3431 28 12V18C28 19.6569 26.6568 21 25 21H17C15.3431 21 14 19.6569 14 18V12C14 10.3431 15.3431 9 17 9Z" fill="#1D1D1D"/>
<path fill-rule="evenodd" clip-rule="evenodd" d="M21 11C21.5523 11 22 11.4477 22 12V14H24C24.5523 14 25 14.4477 25 15C25 15.5523 24.5523 16 24 16H22V18C22 18.5523 21.5523 19 21 19C20.4477 19 20 18.5523 20 18V16H18C17.4477 16 17 15.5523 17 15C17 14.4477 17.4477 14 18 14H20V12C20 11.4477 20.4477 11 21 11Z" fill="#1D1D1D"/>
</svg>
