<?xml version="1.0" encoding="UTF-8"?>
<svg width="256px" height="256px" viewBox="0 0 256 256" version="1.1" xmlns="http://www.w3.org/2000/svg" xmlns:xlink="http://www.w3.org/1999/xlink">
    <title>safari-pinned-tab</title>
    <g id="safari-pinned-tab" stroke="none" stroke-width="1" fill="none" fill-rule="evenodd">
        <path d="M196,12 L60,12 C26.862915,12 0,38.862915 0,72 L0,184 C0,217.137085 26.862915,244 60,244 L196,244 C229.137085,244 256,217.137085 256,184 L256,72 C256,38.862915 229.137085,12 196,12 Z M60,36 L196,36 C215.882251,36 232,52.117749 232,72 L232,184 C232,203.882251 215.882251,220 196,220 L60,220 C40.117749,220 24,203.882251 24,184 L24,72 C24,52.117749 40.117749,36 60,36 Z" id="Rectangle-Copy-22" fill="#000000" fill-rule="nonzero"></path>
        <path d="M68,92 C68,64.617749 95.490332,44 128,44 C154.806212,44 178.56567,58.0463423 185.801612,78.9959178 L186.513049,81.2666052 L163.412326,87.7747999 C160.361047,76.9443365 145.82026,68 128,68 C107.490332,68 92,79.617749 92,92 C92,106.506998 108.383364,115.27896 125.8165,115.957506 L128,116 C157.777088,116 188,131.111456 188,164 C188,191.382251 160.509668,212 128,212 C101.576032,212 78.0866391,198.35058 70.4987125,177.841409 L69.7471586,175.618058 L92.6929242,168.583014 C95.9704543,179.273131 110.406026,188 128,188 C148.509668,188 164,176.382251 164,164 C164,149.493002 147.616636,140.72104 130.1835,140.042494 L128,140 C98.2229124,140 68,124.888544 68,92 Z" id="Combined-Shape" fill="#000000" fill-rule="nonzero"></path>
    </g>
</svg>